<mxfile host="app.diagrams.net" agent="Mozilla/5.0 (Windows NT 10.0; Win64; x64) AppleWebKit/537.36 (KHTML, like Gecko) Chrome/130.0.0.0 Safari/537.36" version="24.7.17">
  <diagram name="Página-1" id="RxiMuzo80x31uVPLmHSr">
    <mxGraphModel dx="3409" dy="868" grid="1" gridSize="10" guides="1" tooltips="1" connect="1" arrows="1" fold="1" page="1" pageScale="1" pageWidth="1169" pageHeight="827" math="0" shadow="0">
      <root>
        <mxCell id="0" />
        <mxCell id="1" parent="0" />
        <mxCell id="0l3fb_4aUZCiNyScdJ1j-4" value="" style="rounded=1;whiteSpace=wrap;html=1;fillColor=none;strokeColor=#82b366;strokeWidth=3;" parent="1" vertex="1">
          <mxGeometry x="-870" y="24" width="2020" height="780" as="geometry" />
        </mxCell>
        <mxCell id="0l3fb_4aUZCiNyScdJ1j-86" value="" style="edgeStyle=orthogonalEdgeStyle;rounded=0;orthogonalLoop=1;jettySize=auto;html=1;" parent="1" source="0l3fb_4aUZCiNyScdJ1j-1" target="0l3fb_4aUZCiNyScdJ1j-2" edge="1">
          <mxGeometry relative="1" as="geometry" />
        </mxCell>
        <mxCell id="0l3fb_4aUZCiNyScdJ1j-1" value="&lt;b&gt;&lt;font style=&quot;font-size: 14px;&quot;&gt;Usuário&lt;/font&gt;&lt;/b&gt;" style="shape=actor;whiteSpace=wrap;html=1;fillColor=#e1d5e7;strokeColor=#9673a6;labelPosition=center;verticalLabelPosition=bottom;align=center;verticalAlign=top;" parent="1" vertex="1">
          <mxGeometry x="-1130" y="410.5" width="40" height="60" as="geometry" />
        </mxCell>
        <mxCell id="0l3fb_4aUZCiNyScdJ1j-11" value="" style="edgeStyle=orthogonalEdgeStyle;rounded=0;orthogonalLoop=1;jettySize=auto;html=1;" parent="1" source="0l3fb_4aUZCiNyScdJ1j-2" target="0l3fb_4aUZCiNyScdJ1j-10" edge="1">
          <mxGeometry relative="1" as="geometry" />
        </mxCell>
        <mxCell id="0l3fb_4aUZCiNyScdJ1j-2" value="&lt;b&gt;&lt;font style=&quot;font-size: 14px;&quot;&gt;Cognito&lt;/font&gt;&lt;/b&gt;" style="outlineConnect=0;dashed=0;verticalLabelPosition=bottom;verticalAlign=top;align=center;html=1;shape=mxgraph.aws3.cognito;fillColor=#AD688B;gradientColor=none;labelPosition=center;" parent="1" vertex="1">
          <mxGeometry x="-1000" y="404" width="56.5" height="73" as="geometry" />
        </mxCell>
        <mxCell id="0l3fb_4aUZCiNyScdJ1j-8" value="" style="rounded=1;whiteSpace=wrap;html=1;strokeColor=default;dashed=1;" parent="1" vertex="1">
          <mxGeometry x="-710" y="200" width="1680" height="570" as="geometry" />
        </mxCell>
        <mxCell id="0l3fb_4aUZCiNyScdJ1j-9" value="" style="outlineConnect=0;dashed=0;verticalLabelPosition=bottom;verticalAlign=top;align=center;html=1;shape=mxgraph.aws3.virtual_private_cloud;fillColor=#F58534;gradientColor=none;" parent="1" vertex="1">
          <mxGeometry x="-610" y="165" width="79.5" height="54" as="geometry" />
        </mxCell>
        <mxCell id="KC0CEyHyilvrYUhQapxG-1" value="" style="edgeStyle=orthogonalEdgeStyle;rounded=0;orthogonalLoop=1;jettySize=auto;html=1;" edge="1" parent="1" source="0l3fb_4aUZCiNyScdJ1j-10" target="0l3fb_4aUZCiNyScdJ1j-12">
          <mxGeometry relative="1" as="geometry" />
        </mxCell>
        <mxCell id="0l3fb_4aUZCiNyScdJ1j-10" value="&lt;b&gt;&lt;font style=&quot;font-size: 14px;&quot;&gt;Route 53&lt;/font&gt;&lt;/b&gt;" style="outlineConnect=0;dashed=0;verticalLabelPosition=bottom;verticalAlign=top;align=center;html=1;shape=mxgraph.aws3.route_53;fillColor=#F58536;gradientColor=none;" parent="1" vertex="1">
          <mxGeometry x="-820" y="398.25" width="70.5" height="85.5" as="geometry" />
        </mxCell>
        <mxCell id="0l3fb_4aUZCiNyScdJ1j-28" value="&lt;font style=&quot;font-size: 14px;&quot;&gt;&lt;b&gt;Cloudformation&lt;/b&gt;&lt;/font&gt;" style="outlineConnect=0;dashed=0;verticalLabelPosition=bottom;verticalAlign=top;align=center;html=1;shape=mxgraph.aws3.cloudformation;fillColor=#759C3E;gradientColor=none;" parent="1" vertex="1">
          <mxGeometry x="-1106.25" y="630" width="76.5" height="93" as="geometry" />
        </mxCell>
        <mxCell id="0l3fb_4aUZCiNyScdJ1j-31" value="&lt;font style=&quot;font-size: 14px;&quot;&gt;&lt;b&gt;S3&lt;/b&gt;&lt;/font&gt;" style="outlineConnect=0;dashed=0;verticalLabelPosition=top;verticalAlign=bottom;align=center;html=1;shape=mxgraph.aws3.s3;fillColor=#E05243;gradientColor=none;labelPosition=center;" parent="1" vertex="1">
          <mxGeometry x="-160" y="270" width="76.5" height="93" as="geometry" />
        </mxCell>
        <mxCell id="0l3fb_4aUZCiNyScdJ1j-41" style="edgeStyle=orthogonalEdgeStyle;rounded=0;orthogonalLoop=1;jettySize=auto;html=1;" parent="1" source="0l3fb_4aUZCiNyScdJ1j-38" target="0l3fb_4aUZCiNyScdJ1j-2" edge="1">
          <mxGeometry relative="1" as="geometry" />
        </mxCell>
        <mxCell id="0l3fb_4aUZCiNyScdJ1j-38" value="&lt;font style=&quot;font-size: 14px;&quot;&gt;&lt;b&gt;Edge Location&lt;/b&gt;&lt;/font&gt;" style="outlineConnect=0;dashed=0;verticalLabelPosition=top;verticalAlign=bottom;align=center;html=1;shape=mxgraph.aws3.edge_location;fillColor=#F58536;gradientColor=none;labelPosition=center;" parent="1" vertex="1">
          <mxGeometry y="86.25" width="58.5" height="64.5" as="geometry" />
        </mxCell>
        <mxCell id="0l3fb_4aUZCiNyScdJ1j-45" style="edgeStyle=orthogonalEdgeStyle;rounded=0;orthogonalLoop=1;jettySize=auto;html=1;entryX=0;entryY=0.836;entryDx=0;entryDy=0;entryPerimeter=0;" parent="1" source="0l3fb_4aUZCiNyScdJ1j-28" target="0l3fb_4aUZCiNyScdJ1j-4" edge="1">
          <mxGeometry relative="1" as="geometry" />
        </mxCell>
        <mxCell id="0l3fb_4aUZCiNyScdJ1j-47" style="edgeStyle=orthogonalEdgeStyle;rounded=0;orthogonalLoop=1;jettySize=auto;html=1;" parent="1" source="0l3fb_4aUZCiNyScdJ1j-46" target="0l3fb_4aUZCiNyScdJ1j-38" edge="1">
          <mxGeometry relative="1" as="geometry" />
        </mxCell>
        <mxCell id="0l3fb_4aUZCiNyScdJ1j-46" value="&lt;b&gt;&lt;font style=&quot;font-size: 14px;&quot;&gt;Cloudfront&lt;/font&gt;&lt;/b&gt;" style="outlineConnect=0;dashed=0;verticalLabelPosition=bottom;verticalAlign=top;align=center;html=1;shape=mxgraph.aws3.cloudfront;fillColor=#F58536;gradientColor=none;" parent="1" vertex="1">
          <mxGeometry x="161.75" y="72" width="76.5" height="93" as="geometry" />
        </mxCell>
        <mxCell id="KC0CEyHyilvrYUhQapxG-10" value="" style="edgeStyle=orthogonalEdgeStyle;rounded=0;orthogonalLoop=1;jettySize=auto;html=1;" edge="1" parent="1" source="0l3fb_4aUZCiNyScdJ1j-53" target="0l3fb_4aUZCiNyScdJ1j-57">
          <mxGeometry relative="1" as="geometry" />
        </mxCell>
        <mxCell id="0l3fb_4aUZCiNyScdJ1j-53" value="&lt;b&gt;&lt;font style=&quot;font-size: 14px;&quot;&gt;Elasticache&lt;/font&gt;&lt;/b&gt;" style="outlineConnect=0;dashed=0;verticalLabelPosition=bottom;verticalAlign=top;align=center;html=1;shape=mxgraph.aws3.elasticache;fillColor=#2E73B8;gradientColor=none;" parent="1" vertex="1">
          <mxGeometry x="-157" y="570" width="67.5" height="81" as="geometry" />
        </mxCell>
        <mxCell id="0l3fb_4aUZCiNyScdJ1j-67" value="&lt;b&gt;&lt;font style=&quot;font-size: 14px;&quot;&gt;Segurança&lt;/font&gt;&lt;/b&gt;" style="rounded=0;whiteSpace=wrap;html=1;labelPosition=center;verticalLabelPosition=top;align=center;verticalAlign=bottom;" parent="1" vertex="1">
          <mxGeometry x="238.25" y="626.5" width="650" height="130" as="geometry" />
        </mxCell>
        <mxCell id="0l3fb_4aUZCiNyScdJ1j-68" value="&lt;b&gt;&lt;font style=&quot;font-size: 14px;&quot;&gt;Monitoramento&lt;/font&gt;&lt;/b&gt;" style="rounded=0;whiteSpace=wrap;html=1;labelPosition=center;verticalLabelPosition=top;align=center;verticalAlign=bottom;" parent="1" vertex="1">
          <mxGeometry x="238.25" y="248.5" width="650" height="140" as="geometry" />
        </mxCell>
        <mxCell id="0l3fb_4aUZCiNyScdJ1j-69" value="" style="group" parent="1" vertex="1" connectable="0">
          <mxGeometry x="-37.25" y="500" width="242.25" height="250" as="geometry" />
        </mxCell>
        <mxCell id="0l3fb_4aUZCiNyScdJ1j-60" value="" style="rounded=1;whiteSpace=wrap;html=1;dashed=1;dashPattern=8 8;strokeColor=#FF9933;fillColor=none;" parent="0l3fb_4aUZCiNyScdJ1j-69" vertex="1">
          <mxGeometry width="242.25" height="250" as="geometry" />
        </mxCell>
        <mxCell id="0l3fb_4aUZCiNyScdJ1j-61" value="&lt;b&gt;&lt;font style=&quot;font-size: 14px;&quot;&gt;Auto Scaling&lt;/font&gt;&lt;/b&gt;" style="outlineConnect=0;dashed=0;verticalLabelPosition=bottom;verticalAlign=top;align=center;html=1;shape=mxgraph.aws3.auto_scaling;fillColor=#F58534;gradientColor=none;" parent="0l3fb_4aUZCiNyScdJ1j-69" vertex="1">
          <mxGeometry x="132.75" y="60" width="79.5" height="76.5" as="geometry" />
        </mxCell>
        <mxCell id="0l3fb_4aUZCiNyScdJ1j-56" value="&lt;b&gt;&lt;font style=&quot;font-size: 14px;&quot;&gt;RDS&lt;/font&gt;&lt;/b&gt;" style="outlineConnect=0;dashed=0;verticalLabelPosition=bottom;verticalAlign=top;align=center;html=1;shape=mxgraph.aws3.rds;fillColor=#2E73B8;gradientColor=none;" parent="0l3fb_4aUZCiNyScdJ1j-69" vertex="1">
          <mxGeometry x="20" y="20" width="72" height="81" as="geometry" />
        </mxCell>
        <mxCell id="0l3fb_4aUZCiNyScdJ1j-57" value="&lt;b&gt;&lt;font style=&quot;font-size: 14px;&quot;&gt;Dynamo DB&lt;/font&gt;&lt;/b&gt;" style="outlineConnect=0;dashed=0;verticalLabelPosition=bottom;verticalAlign=top;align=center;html=1;shape=mxgraph.aws3.dynamo_db;fillColor=#2E73B8;gradientColor=none;" parent="0l3fb_4aUZCiNyScdJ1j-69" vertex="1">
          <mxGeometry x="20" y="136.5" width="72" height="81" as="geometry" />
        </mxCell>
        <mxCell id="0l3fb_4aUZCiNyScdJ1j-78" style="edgeStyle=orthogonalEdgeStyle;rounded=0;orthogonalLoop=1;jettySize=auto;html=1;entryX=0.5;entryY=1;entryDx=0;entryDy=0;entryPerimeter=0;" parent="1" source="0l3fb_4aUZCiNyScdJ1j-31" target="0l3fb_4aUZCiNyScdJ1j-38" edge="1">
          <mxGeometry relative="1" as="geometry" />
        </mxCell>
        <mxCell id="Ly3-4LEqmZqqXIqAYG30-1" value="&lt;font style=&quot;font-size: 14px;&quot;&gt;&lt;b&gt;CloudWatch&lt;/b&gt;&lt;/font&gt;" style="outlineConnect=0;dashed=0;verticalLabelPosition=bottom;verticalAlign=top;align=center;html=1;shape=mxgraph.aws3.cloudwatch;fillColor=#759C3E;gradientColor=none;" parent="1" vertex="1">
          <mxGeometry x="270" y="260" width="82.5" height="93" as="geometry" />
        </mxCell>
        <mxCell id="Ly3-4LEqmZqqXIqAYG30-2" value="&lt;font style=&quot;font-size: 14px;&quot;&gt;&lt;b&gt;Alarm&lt;/b&gt;&lt;/font&gt;" style="sketch=0;outlineConnect=0;fontColor=#232F3E;gradientColor=none;fillColor=#E7157B;strokeColor=none;dashed=0;verticalLabelPosition=bottom;verticalAlign=top;align=center;html=1;fontSize=12;fontStyle=0;aspect=fixed;pointerEvents=1;shape=mxgraph.aws4.alarm;" parent="1" vertex="1">
          <mxGeometry x="499" y="267.5" width="78" height="78" as="geometry" />
        </mxCell>
        <mxCell id="Ly3-4LEqmZqqXIqAYG30-4" value="&lt;b&gt;&lt;font style=&quot;font-size: 14px;&quot;&gt;CloudTrail&lt;/font&gt;&lt;/b&gt;" style="outlineConnect=0;dashed=0;verticalLabelPosition=bottom;verticalAlign=top;align=center;html=1;shape=mxgraph.aws3.cloudtrail;fillColor=#759C3E;gradientColor=none;" parent="1" vertex="1">
          <mxGeometry x="700" y="262.5" width="76.5" height="93" as="geometry" />
        </mxCell>
        <mxCell id="WVv-WNwBPXQA46CuhtBa-2" value="&lt;font style=&quot;font-size: 14px;&quot;&gt;&lt;b&gt;KMS&lt;/b&gt;&lt;/font&gt;" style="outlineConnect=0;dashed=0;verticalLabelPosition=bottom;verticalAlign=top;align=center;html=1;shape=mxgraph.aws3.kms;fillColor=#759C3E;gradientColor=none;" parent="1" vertex="1">
          <mxGeometry x="300" y="637.5" width="76.5" height="93" as="geometry" />
        </mxCell>
        <mxCell id="WVv-WNwBPXQA46CuhtBa-3" value="&lt;b&gt;&lt;font style=&quot;font-size: 14px;&quot;&gt;Shield&lt;/font&gt;&lt;/b&gt;" style="outlineConnect=0;dashed=0;verticalLabelPosition=bottom;verticalAlign=top;align=center;html=1;shape=mxgraph.aws3.shield;fillColor=#759C3E;gradientColor=none;" parent="1" vertex="1">
          <mxGeometry x="422.5" y="648.75" width="76.5" height="70.5" as="geometry" />
        </mxCell>
        <mxCell id="WVv-WNwBPXQA46CuhtBa-4" value="&lt;b&gt;&lt;font style=&quot;font-size: 14px;&quot;&gt;WAF&lt;/font&gt;&lt;/b&gt;" style="outlineConnect=0;dashed=0;verticalLabelPosition=bottom;verticalAlign=top;align=center;html=1;shape=mxgraph.aws3.waf;fillColor=#759C3E;gradientColor=none;" parent="1" vertex="1">
          <mxGeometry x="530" y="634.5" width="76.5" height="96" as="geometry" />
        </mxCell>
        <mxCell id="WVv-WNwBPXQA46CuhtBa-7" value="&lt;b&gt;&lt;font style=&quot;font-size: 14px;&quot;&gt;GuardDuty&lt;/font&gt;&lt;/b&gt;" style="sketch=0;points=[[0,0,0],[0.25,0,0],[0.5,0,0],[0.75,0,0],[1,0,0],[0,1,0],[0.25,1,0],[0.5,1,0],[0.75,1,0],[1,1,0],[0,0.25,0],[0,0.5,0],[0,0.75,0],[1,0.25,0],[1,0.5,0],[1,0.75,0]];outlineConnect=0;fontColor=#232F3E;fillColor=#DD344C;strokeColor=#ffffff;dashed=0;verticalLabelPosition=bottom;verticalAlign=top;align=center;html=1;fontSize=12;fontStyle=0;aspect=fixed;shape=mxgraph.aws4.resourceIcon;resIcon=mxgraph.aws4.guardduty;" parent="1" vertex="1">
          <mxGeometry x="640" y="645" width="78" height="78" as="geometry" />
        </mxCell>
        <mxCell id="WVv-WNwBPXQA46CuhtBa-9" value="" style="sketch=0;outlineConnect=0;fontColor=#232F3E;gradientColor=none;fillColor=#DD344C;strokeColor=none;dashed=0;verticalLabelPosition=bottom;verticalAlign=top;align=center;html=1;fontSize=12;fontStyle=0;aspect=fixed;pointerEvents=1;shape=mxgraph.aws4.mfa_token;" parent="1" vertex="1">
          <mxGeometry x="760" y="652.5" width="78" height="78" as="geometry" />
        </mxCell>
        <mxCell id="WVv-WNwBPXQA46CuhtBa-54" style="edgeStyle=orthogonalEdgeStyle;rounded=0;orthogonalLoop=1;jettySize=auto;html=1;" parent="1" source="WVv-WNwBPXQA46CuhtBa-13" target="WVv-WNwBPXQA46CuhtBa-51" edge="1">
          <mxGeometry relative="1" as="geometry" />
        </mxCell>
        <mxCell id="WVv-WNwBPXQA46CuhtBa-13" value="" style="rounded=1;whiteSpace=wrap;html=1;dashed=1;" parent="1" vertex="1">
          <mxGeometry x="-565.25" y="341.25" width="310" height="250" as="geometry" />
        </mxCell>
        <mxCell id="0l3fb_4aUZCiNyScdJ1j-12" value="&lt;b&gt;&lt;font style=&quot;font-size: 14px;&quot;&gt;ELB&lt;/font&gt;&lt;/b&gt;" style="outlineConnect=0;dashed=0;verticalLabelPosition=bottom;verticalAlign=top;align=center;html=1;shape=mxgraph.aws3.classic_load_balancer;fillColor=#F58534;gradientColor=none;" parent="1" vertex="1">
          <mxGeometry x="-670" y="404" width="70" height="72" as="geometry" />
        </mxCell>
        <mxCell id="WVv-WNwBPXQA46CuhtBa-24" value="" style="group" parent="1" vertex="1" connectable="0">
          <mxGeometry x="-410" y="440" width="80" height="102" as="geometry" />
        </mxCell>
        <mxCell id="WVv-WNwBPXQA46CuhtBa-19" value="&lt;b&gt;&lt;font style=&quot;font-size: 14px;&quot;&gt;EC2&lt;/font&gt;&lt;/b&gt;" style="outlineConnect=0;dashed=0;verticalLabelPosition=top;verticalAlign=bottom;align=center;html=1;shape=mxgraph.aws3.ec2;fillColor=#F58534;gradientColor=none;labelPosition=center;" parent="WVv-WNwBPXQA46CuhtBa-24" vertex="1">
          <mxGeometry width="76.5" height="93" as="geometry" />
        </mxCell>
        <mxCell id="WVv-WNwBPXQA46CuhtBa-21" value="&lt;b&gt;&lt;font style=&quot;font-size: 14px;&quot;&gt;EBS&lt;/font&gt;&lt;/b&gt;" style="outlineConnect=0;dashed=0;verticalLabelPosition=bottom;verticalAlign=top;align=center;html=1;shape=mxgraph.aws3.volume;fillColor=#E05243;gradientColor=none;" parent="WVv-WNwBPXQA46CuhtBa-24" vertex="1">
          <mxGeometry x="50" y="62" width="30" height="40" as="geometry" />
        </mxCell>
        <mxCell id="WVv-WNwBPXQA46CuhtBa-27" value="&lt;b&gt;&lt;font style=&quot;font-size: 14px;&quot;&gt;Auto Scaling&lt;/font&gt;&lt;/b&gt;" style="outlineConnect=0;dashed=0;verticalLabelPosition=bottom;verticalAlign=top;align=center;html=1;shape=mxgraph.aws3.auto_scaling;fillColor=#F58534;gradientColor=none;" parent="1" vertex="1">
          <mxGeometry x="-540" y="447.25" width="79.5" height="75.5" as="geometry" />
        </mxCell>
        <mxCell id="WVv-WNwBPXQA46CuhtBa-28" value="&lt;b&gt;&lt;font style=&quot;font-size: 17px;&quot;&gt;Region A&lt;/font&gt;&lt;/b&gt;" style="text;html=1;align=center;verticalAlign=middle;resizable=0;points=[];autosize=1;strokeColor=none;fillColor=none;" parent="1" vertex="1">
          <mxGeometry x="-470.5" y="363" width="100" height="30" as="geometry" />
        </mxCell>
        <mxCell id="WVv-WNwBPXQA46CuhtBa-52" value="" style="edgeStyle=orthogonalEdgeStyle;rounded=0;orthogonalLoop=1;jettySize=auto;html=1;" parent="1" source="WVv-WNwBPXQA46CuhtBa-51" target="0l3fb_4aUZCiNyScdJ1j-53" edge="1">
          <mxGeometry relative="1" as="geometry" />
        </mxCell>
        <mxCell id="WVv-WNwBPXQA46CuhtBa-57" value="" style="edgeStyle=orthogonalEdgeStyle;rounded=0;orthogonalLoop=1;jettySize=auto;html=1;" parent="1" source="WVv-WNwBPXQA46CuhtBa-51" target="0l3fb_4aUZCiNyScdJ1j-31" edge="1">
          <mxGeometry relative="1" as="geometry">
            <mxPoint x="-121.80000000000018" y="373" as="targetPoint" />
          </mxGeometry>
        </mxCell>
        <mxCell id="WVv-WNwBPXQA46CuhtBa-51" value="" style="ellipse;whiteSpace=wrap;html=1;aspect=fixed;" parent="1" vertex="1">
          <mxGeometry x="-151.75" y="436.25" width="60" height="60" as="geometry" />
        </mxCell>
        <mxCell id="KC0CEyHyilvrYUhQapxG-7" style="edgeStyle=orthogonalEdgeStyle;rounded=0;orthogonalLoop=1;jettySize=auto;html=1;entryX=-0.01;entryY=0.395;entryDx=0;entryDy=0;entryPerimeter=0;" edge="1" parent="1" source="0l3fb_4aUZCiNyScdJ1j-12" target="WVv-WNwBPXQA46CuhtBa-13">
          <mxGeometry relative="1" as="geometry" />
        </mxCell>
        <mxCell id="KC0CEyHyilvrYUhQapxG-8" style="edgeStyle=orthogonalEdgeStyle;rounded=0;orthogonalLoop=1;jettySize=auto;html=1;exitX=0;exitY=0.25;exitDx=0;exitDy=0;entryX=0.002;entryY=0.154;entryDx=0;entryDy=0;entryPerimeter=0;" edge="1" parent="1" source="0l3fb_4aUZCiNyScdJ1j-68" target="0l3fb_4aUZCiNyScdJ1j-68">
          <mxGeometry relative="1" as="geometry" />
        </mxCell>
        <mxCell id="KC0CEyHyilvrYUhQapxG-11" style="edgeStyle=orthogonalEdgeStyle;rounded=0;orthogonalLoop=1;jettySize=auto;html=1;entryX=0;entryY=0.5;entryDx=0;entryDy=0;entryPerimeter=0;" edge="1" parent="1" source="0l3fb_4aUZCiNyScdJ1j-53" target="0l3fb_4aUZCiNyScdJ1j-56">
          <mxGeometry relative="1" as="geometry" />
        </mxCell>
      </root>
    </mxGraphModel>
  </diagram>
</mxfile>
